<svg width="17" height="15" viewBox="0 0 17 15" fill="none" xmlns="http://www.w3.org/2000/svg">
<path d="M14.1761 14.019V3.016C14.1761 2.65123 13.9991 2.3014 13.6841 2.04346C13.3691 1.78553 12.9419 1.64063 12.4964 1.64062H4.09774C3.65225 1.64063 3.225 1.78553 2.90999 2.04346C2.59498 2.3014 2.41801 2.65123 2.41801 3.016V14.019M14.1761 14.019H2.41801M14.1761 14.019H15.8558M14.1761 14.019H9.9768M2.41801 14.019H0.738281M2.41801 14.019H6.61734M9.9768 14.019V10.5806C9.9768 10.3982 9.88831 10.2233 9.7308 10.0943C9.5733 9.96533 9.35968 9.89288 9.13693 9.89288H7.4572C7.23445 9.89288 7.02083 9.96533 6.86333 10.0943C6.70582 10.2233 6.61734 10.3982 6.61734 10.5806V14.019M9.9768 14.019H6.61734M5.77747 4.39138H6.61734M5.77747 7.14213H6.61734M9.9768 4.39138H10.8167M9.9768 7.14213H10.8167" stroke="#484848" stroke-width="1.37432" stroke-linecap="round" stroke-linejoin="round"/>
</svg>
