<svg width="16" height="12" viewBox="0 0 16 12" fill="none" xmlns="http://www.w3.org/2000/svg">
<path d="M14.2847 0.40625H1.22863C0.940074 0.40625 0.663336 0.520879 0.459295 0.72492C0.255254 0.928961 0.140625 1.2057 0.140625 1.49426V10.1983C0.140625 10.4869 0.255254 10.7636 0.459295 10.9676C0.663336 11.1717 0.940074 11.2863 1.22863 11.2863H14.2847C14.5733 11.2863 14.85 11.1717 15.054 10.9676C15.2581 10.7636 15.3727 10.4869 15.3727 10.1983V1.49426C15.3727 1.2057 15.2581 0.928961 15.054 0.72492C14.85 0.520879 14.5733 0.40625 14.2847 0.40625ZM13.0879 1.49426L7.75667 5.1826L2.42544 1.49426H13.0879ZM1.22863 10.1983V1.9893L7.44659 6.29237C7.53765 6.35554 7.64584 6.38939 7.75667 6.38939C7.8675 6.38939 7.97569 6.35554 8.06675 6.29237L14.2847 1.9893V10.1983H1.22863Z" fill="#484848"/>
</svg>
