<svg width="15" height="15" viewBox="0 0 15 15" fill="none" xmlns="http://www.w3.org/2000/svg">
<path d="M2.11095 4.66993C1.85939 3.31328 3.02763 2.09466 4.81224 1.6482C5.12894 1.56892 5.47064 1.59148 5.76772 1.71131C6.0648 1.83113 6.29491 2.03919 6.41116 2.29309L6.98408 3.54406C7.07631 3.74531 7.09299 3.96453 7.03197 4.17359C6.97095 4.38266 6.83503 4.57202 6.64164 4.71738L4.93737 5.99531C4.85336 6.05843 4.79076 6.1383 4.75568 6.22713C4.72059 6.31596 4.71422 6.41071 4.73717 6.50216L4.75298 6.55824L4.79381 6.69843C5.00576 7.37961 5.3287 8.03434 5.75394 8.64498C6.21717 9.29386 6.79203 9.88478 7.46085 10.3996L7.51354 10.4384C7.59862 10.5002 7.70182 10.543 7.81307 10.5624C7.92433 10.5819 8.03984 10.5774 8.14836 10.5495L10.3518 9.98114C10.6022 9.91676 10.8704 9.91512 11.122 9.97641C11.3735 10.0377 11.597 10.1592 11.7637 10.3252L12.8068 11.3615C13.2414 11.7929 13.1888 12.427 12.6896 12.8077C11.3238 13.8505 9.44567 14.064 8.13914 13.2045C6.53763 12.1468 5.18755 10.8567 4.15635 9.3988C3.11678 7.942 2.42239 6.33763 2.10964 4.66993H2.11095ZM6.11877 6.57334L7.53066 5.51217C7.91766 5.22158 8.18976 4.84291 8.31203 4.42478C8.43429 4.00664 8.40115 3.56813 8.21685 3.16553L7.64524 1.91457C7.41126 1.40366 6.94817 0.985036 6.35033 0.743986C5.75249 0.502936 5.0649 0.457605 4.42766 0.61723C2.21105 1.17262 0.4317 2.79995 0.80838 4.83277C1.07179 6.25197 1.67896 8.05724 3.01841 9.94232C4.13094 11.5143 5.58728 12.9053 7.31466 14.0457C9.27445 15.3344 11.8901 14.8944 13.5891 13.5982C14.598 12.8282 14.7007 11.5492 13.8249 10.6778L12.7818 9.64036C12.4481 9.30873 12.001 9.06626 11.4979 8.94406C10.9948 8.82186 10.4586 8.82549 9.958 8.95449L8.1286 9.42576C7.65627 9.02699 7.24253 8.58435 6.89584 8.10685C6.56094 7.62411 6.29995 7.10942 6.11877 6.57442V6.57334Z" fill="#484848"/>
</svg>
