<svg width="22" height="18" viewBox="0 0 22 18" fill="none" xmlns="http://www.w3.org/2000/svg">
<path d="M6.5 3.375V8.25H13.6892L11.2198 5.78016C11.0851 5.63836 11.0111 5.44955 11.0136 5.25398C11.0161 5.0584 11.0949 4.87155 11.2332 4.73325C11.3715 4.59495 11.5584 4.51614 11.754 4.51364C11.9495 4.51114 12.1384 4.58513 12.2802 4.71984L16.0302 8.46984C16.1707 8.61048 16.2497 8.80117 16.2497 9C16.2497 9.19883 16.1707 9.38952 16.0302 9.53016L12.2802 13.2802C12.1384 13.4149 11.9495 13.4889 11.754 13.4864C11.5584 13.4839 11.3715 13.4051 11.2332 13.2668C11.0949 13.1285 11.0161 12.9416 11.0136 12.746C11.0111 12.5505 11.0851 12.3616 11.2198 12.2198L13.6892 9.75H6.5V14.625C6.50074 15.321 6.77754 15.9882 7.26967 16.4803C7.76179 16.9725 8.42904 17.2493 9.125 17.25H18.875C19.571 17.2493 20.2382 16.9725 20.7303 16.4803C21.2225 15.9882 21.4993 15.321 21.5 14.625V3.375C21.4993 2.67904 21.2225 2.01179 20.7303 1.51967C20.2382 1.02755 19.571 0.750744 18.875 0.75H9.125C8.42904 0.750744 7.76179 1.02755 7.26967 1.51967C6.77754 2.01179 6.50074 2.67904 6.5 3.375ZM1.25 8.25C1.05109 8.25 0.860322 8.32902 0.71967 8.46967C0.579018 8.61032 0.5 8.80109 0.5 9C0.5 9.19891 0.579018 9.38968 0.71967 9.53033C0.860322 9.67098 1.05109 9.75 1.25 9.75H6.5V8.25H1.25Z" fill="#1B7E25"/>
</svg>
