<svg width="22" height="18" viewBox="0 0 22 18" fill="none" xmlns="http://www.w3.org/2000/svg">
<path d="M14.75 14.625V9.75H7.95312C7.75421 9.75 7.56345 9.67098 7.4228 9.53033C7.28214 9.38968 7.20312 9.19891 7.20312 9C7.20312 8.80109 7.28214 8.61032 7.4228 8.46967C7.56345 8.32902 7.75421 8.25 7.95312 8.25H14.75V3.375C14.7493 2.67904 14.4725 2.01179 13.9803 1.51967C13.4882 1.02755 12.821 0.750744 12.125 0.75H3.125C2.42904 0.750744 1.76179 1.02755 1.26967 1.51967C0.777545 2.01179 0.500744 2.67904 0.5 3.375V14.625C0.500744 15.321 0.777545 15.9882 1.26967 16.4803C1.76179 16.9725 2.42904 17.2493 3.125 17.25H12.125C12.821 17.2493 13.4882 16.9725 13.9803 16.4803C14.4725 15.9882 14.7493 15.321 14.75 14.625ZM18.9392 9.75L16.4698 12.2198C16.3351 12.3616 16.2611 12.5505 16.2636 12.746C16.2661 12.9416 16.3449 13.1285 16.4832 13.2668C16.6215 13.4051 16.8084 13.4839 17.004 13.4864C17.1995 13.4889 17.3884 13.4149 17.5302 13.2802L21.2802 9.53016C21.4207 9.38952 21.4997 9.19883 21.4997 9C21.4997 8.80117 21.4207 8.61048 21.2802 8.46984L17.5302 4.71984C17.3884 4.58513 17.1995 4.51114 17.004 4.51364C16.8084 4.51614 16.6215 4.59495 16.4832 4.73325C16.3449 4.87155 16.2661 5.0584 16.2636 5.25398C16.2611 5.44955 16.3351 5.63836 16.4698 5.78016L18.9392 8.25H14.75V9.75H18.9392Z" fill="#1B7E25"/>
</svg>
